<svg id="Layer_1" data-name="Layer 1" xmlns="http://www.w3.org/2000/svg" viewBox="0 0 208 119"><defs><style>.cls-1{fill:#303030;}</style></defs><path class="cls-1" d="M18.69,12.19a5.94,5.94,0,0,1,3,.83l71.7,41.4a6,6,0,0,1,0,10.41l-71.7,41.4a5.94,5.94,0,0,1-3,.83,6.06,6.06,0,0,1-6-6V18.23a6.06,6.06,0,0,1,6-6m0-12a18,18,0,0,0-18,18V101a18,18,0,0,0,27,15.6l71.7-41.39a18,18,0,0,0,0-31.2L27.67,2.63a17.92,17.92,0,0,0-9-2.44Z"/><path class="cls-1" d="M120.76,13.89a5.88,5.88,0,0,1,3,.83l68.76,39.7a6,6,0,0,1,0,10.41l-68.76,39.7a5.91,5.91,0,0,1-3,.83,6.06,6.06,0,0,1-6.05-6V19.93a6.06,6.06,0,0,1,6.05-6m0-12a18,18,0,0,0-18.05,18V99.32a18,18,0,0,0,18.05,18,17.81,17.81,0,0,0,9-2.44l68.76-39.69a18,18,0,0,0,0-31.2L129.73,4.33a17.81,17.81,0,0,0-9-2.44Z"/></svg>