<svg id="Layer_1" data-name="Layer 1" xmlns="http://www.w3.org/2000/svg" viewBox="0 0 1023.68 968.59"><defs><style>.cls-1{fill:#303030;}.cls-2,.cls-3{fill:none;stroke:#303030;stroke-linecap:round;stroke-miterlimit:10;}.cls-2{stroke-width:20px;}.cls-3{stroke-width:10px;}</style></defs><path class="cls-1" d="M1030,16.11v12a6.05,6.05,0,0,1,6,6v82.63a6.06,6.06,0,0,1-6,6,5.86,5.86,0,0,1-3-.84L955.75,80.67a6,6,0,0,1,0-10.41L1027,29a5.89,5.89,0,0,1,3-.84v-12m0,0a17.85,17.85,0,0,0-9,2.46L949.73,59.88a18,18,0,0,0,0,31.17L1021,132.36a17.85,17.85,0,0,0,9,2.46,18,18,0,0,0,18-18V34.15a18,18,0,0,0-18-18Z" transform="translate(-24.32 -0.25)"/><path class="cls-1" d="M928.39,17.8v12a6.06,6.06,0,0,1,6,6v79.25a6.06,6.06,0,0,1-6,6,6,6,0,0,1-3-.84L857.1,80.67a6,6,0,0,1,0-10.41l68.3-39.62a6,6,0,0,1,3-.84v-12m0,0a17.85,17.85,0,0,0-9,2.46l-68.3,39.62a18,18,0,0,0,0,31.17l68.3,39.62a17.85,17.85,0,0,0,9,2.46,18,18,0,0,0,18-18V35.84a18,18,0,0,0-18-18Z" transform="translate(-24.32 -0.25)"/><path class="cls-1" d="M221.56,525.54v12a6.05,6.05,0,0,1,6,6V595.3a6.06,6.06,0,0,1-6,6,5.89,5.89,0,0,1-3-.84L174,574.64a6,6,0,0,1,0-10.4l44.58-25.86a5.89,5.89,0,0,1,3-.84v-12m0,0a17.85,17.85,0,0,0-9,2.46L168,553.86A18,18,0,0,0,168,585l44.58,25.86a17.85,17.85,0,0,0,9,2.46,18,18,0,0,0,18-18V543.58a18,18,0,0,0-18-18Z" transform="translate(-24.32 -0.25)"/><path class="cls-1" d="M141.62,526.87v12a6.06,6.06,0,0,1,6,6V594a6.05,6.05,0,0,1-6,6,5.91,5.91,0,0,1-3-.83L96.35,574.64a6,6,0,0,1,0-10.4l42.28-24.53a5.94,5.94,0,0,1,3-.84v-12m0,0a17.85,17.85,0,0,0-9,2.46L90.33,553.86a18,18,0,0,0,0,31.16l42.27,24.53A18,18,0,0,0,159.66,594V544.91a18,18,0,0,0-18-18Z" transform="translate(-24.32 -0.25)"/><path class="cls-1" d="M565.69,28a5.86,5.86,0,0,1,3,.84l71.7,41.39a6,6,0,0,1,0,10.41l-71.7,41.4a5.94,5.94,0,0,1-3,.83,6.06,6.06,0,0,1-6-6V34.07a6.06,6.06,0,0,1,6-6m0-12a18,18,0,0,0-18,18v82.79a18,18,0,0,0,18,18,17.82,17.82,0,0,0,9-2.44l71.7-41.39a18,18,0,0,0,0-31.2l-71.7-41.4a17.92,17.92,0,0,0-9-2.44Z" transform="translate(-24.32 -0.25)"/><path class="cls-1" d="M667.76,29.73a5.88,5.88,0,0,1,3,.83l68.76,39.7a6,6,0,0,1,0,10.41l-68.76,39.7a5.91,5.91,0,0,1-3,.83,6.06,6.06,0,0,1-6-6V35.77a6.06,6.06,0,0,1,6-6m0-12a18,18,0,0,0-18,18v79.39a18,18,0,0,0,18,18,17.81,17.81,0,0,0,9-2.44l68.76-39.69a18,18,0,0,0,0-31.2l-68.76-39.7a17.81,17.81,0,0,0-9-2.44Z" transform="translate(-24.32 -0.25)"/><path class="cls-1" d="M573.67,537.46a5.83,5.83,0,0,1,3,.84l44.93,25.93a6,6,0,0,1,0,10.42l-44.93,25.93a5.83,5.83,0,0,1-3,.84,6.06,6.06,0,0,1-6-6V543.5a6.06,6.06,0,0,1,6-6m0-12a18,18,0,0,0-18,18v51.88a18,18,0,0,0,27,15.6L627.58,585a18,18,0,0,0,0-31.2L582.65,527.9a17.92,17.92,0,0,0-9-2.44Z" transform="translate(-24.32 -0.25)"/><path class="cls-1" d="M654,538.8a5.88,5.88,0,0,1,3,.83l42.62,24.6a6,6,0,0,1,0,10.42L657,599.25a5.88,5.88,0,0,1-3,.83,6.05,6.05,0,0,1-6-6v-49.2a6.05,6.05,0,0,1,6-6m0-12a18,18,0,0,0-18,18V594a18,18,0,0,0,18,18,17.81,17.81,0,0,0,9-2.44L705.6,585a18,18,0,0,0,0-31.2L663,529.24a17.81,17.81,0,0,0-9-2.44Z" transform="translate(-24.32 -0.25)"/><path class="cls-1" d="M42.36,14.25a3.91,3.91,0,0,1,2,.57l99,57.17a4,4,0,0,1,0,7l-99,57.18a3.9,3.9,0,0,1-2,.56,4.06,4.06,0,0,1-4-4V18.29a4.07,4.07,0,0,1,4-4m0-14a18,18,0,0,0-18,18V132.64a18,18,0,0,0,18,18,17.82,17.82,0,0,0,9-2.44l99-57.17a18,18,0,0,0,0-31.2l-99-57.18a17.92,17.92,0,0,0-9-2.44Z" transform="translate(-24.32 -0.25)"/><path class="cls-1" d="M359.36,508.25a3.91,3.91,0,0,1,2,.57l99,57.17a4,4,0,0,1,0,7l-99,57.18a3.9,3.9,0,0,1-2,.56,4.06,4.06,0,0,1-4-4V512.29a4.07,4.07,0,0,1,4-4m0-14a18,18,0,0,0-18,18V626.64a18,18,0,0,0,18,18,17.82,17.82,0,0,0,9-2.44l99-57.17a18,18,0,0,0,0-31.2l-99-57.18a17.92,17.92,0,0,0-9-2.44Z" transform="translate(-24.32 -0.25)"/><line class="cls-2" x1="342.78" y1="32.01" x2="342.78" y2="118.59"/><line class="cls-2" x1="399.68" y1="32.01" x2="399.68" y2="118.59"/><line class="cls-2" x1="342.78" y1="789.01" x2="342.78" y2="875.59"/><line class="cls-2" x1="399.68" y1="789.01" x2="399.68" y2="875.59"/><circle class="cls-3" cx="371.18" cy="569.09" r="131.5"/><circle class="cls-3" cx="371.18" cy="832.09" r="131.5"/><circle class="cls-3" cx="606.75" cy="569.09" r="103.5"/><circle class="cls-3" cx="134.61" cy="569.09" r="103.5"/><path class="cls-1" d="M221.56,788.54v12a6.05,6.05,0,0,1,6,6V858.3a6.06,6.06,0,0,1-6,6,5.89,5.89,0,0,1-3-.84L174,837.64a6,6,0,0,1,0-10.4l44.58-25.86a5.89,5.89,0,0,1,3-.84v-12m0,0a17.85,17.85,0,0,0-9,2.46L168,816.86A18,18,0,0,0,168,848l44.58,25.86a17.85,17.85,0,0,0,9,2.46,18,18,0,0,0,18-18V806.58a18,18,0,0,0-18-18Z" transform="translate(-24.32 -0.25)"/><path class="cls-1" d="M141.62,789.87v12a6.06,6.06,0,0,1,6,6V857a6.05,6.05,0,0,1-6,6,5.91,5.91,0,0,1-3-.83L96.35,837.64a6,6,0,0,1,0-10.4l42.28-24.53a5.94,5.94,0,0,1,3-.84v-12m0,0a17.85,17.85,0,0,0-9,2.46L90.33,816.86a18,18,0,0,0,0,31.16l42.27,24.53A18,18,0,0,0,159.66,857V807.91a18,18,0,0,0-18-18Z" transform="translate(-24.32 -0.25)"/><path class="cls-1" d="M573.67,800.46a5.83,5.83,0,0,1,3,.84l44.93,25.93a6,6,0,0,1,0,10.42l-44.93,25.93a5.83,5.83,0,0,1-3,.84,6.06,6.06,0,0,1-6-6V806.5a6.06,6.06,0,0,1,6-6m0-12a18,18,0,0,0-18,18v51.88a18,18,0,0,0,27,15.6L627.58,848a18,18,0,0,0,0-31.2L582.65,790.9a17.92,17.92,0,0,0-9-2.44Z" transform="translate(-24.32 -0.25)"/><path class="cls-1" d="M654,801.8a5.88,5.88,0,0,1,3,.83l42.62,24.6a6,6,0,0,1,0,10.42L657,862.25a5.88,5.88,0,0,1-3,.83,6.05,6.05,0,0,1-6-6v-49.2a6.05,6.05,0,0,1,6-6m0-12a18,18,0,0,0-18,18V857a18,18,0,0,0,18,18,17.81,17.81,0,0,0,9-2.44L705.6,848a18,18,0,0,0,0-31.2L663,792.24a17.81,17.81,0,0,0-9-2.44Z" transform="translate(-24.32 -0.25)"/><circle class="cls-3" cx="606.75" cy="832.09" r="103.5"/><circle class="cls-3" cx="134.61" cy="832.09" r="103.5"/></svg>