<svg id="Layer_1" data-name="Layer 1" xmlns="http://www.w3.org/2000/svg" viewBox="0 0 208 119"><defs><style>.cls-1{fill:#303030;}</style></defs><path class="cls-1" d="M189,.27v12a6.05,6.05,0,0,1,6,6v82.63a6.06,6.06,0,0,1-6,6,5.86,5.86,0,0,1-3-.84L114.75,64.83a6,6,0,0,1,0-10.41L186,13.11a5.89,5.89,0,0,1,3-.84V.27m0,0a17.85,17.85,0,0,0-9,2.46L108.73,44a18,18,0,0,0,0,31.17L180,116.52a17.85,17.85,0,0,0,9,2.46,18,18,0,0,0,18-18V18.31a18,18,0,0,0-18-18Z"/><path class="cls-1" d="M87.39,2V14a6.06,6.06,0,0,1,6,6V99.25a6.06,6.06,0,0,1-6,6,6,6,0,0,1-3-.84L16.1,64.83a6,6,0,0,1,0-10.41L84.4,14.8a6,6,0,0,1,3-.84V2m0,0a17.85,17.85,0,0,0-9,2.46L10.08,44a18,18,0,0,0,0,31.17l68.3,39.62a17.85,17.85,0,0,0,9,2.46,18,18,0,0,0,18-18V20a18,18,0,0,0-18-18Z"/></svg>